{"title":"Chasing.Mavericks.2012.WEBRiP.XviD-Acesn8s","uid":8140252,"size":734516033,"categoryP":"video","categoryS":"movies","magnet":"?xt=urn:btih:3fc42fc094296d1aeb34eda1d363eb56ffa7237d&amp;dn=Chasing.Mavericks.2012.WEBRiP.XviD-Acesn8s&amp;tr=udp%3A%2F%2Ftracker.openbittorrent.com%3A80&amp;tr=udp%3A%2F%2Fopen.demonii.com%3A1337&amp;tr=udp%3A%2F%2Ftracker.coppersurfer.tk%3A6969&amp;tr=udp%3A%2F%2Fexodus.desync.com%3A6969","seeders":4,"leechers":1,"uploader":"Acesn8s","files":-1,"time":1360794426,"description":"General\nComplete name                            : Chasing.Mavericks.2012.WEBRiP.XviD-Acesn8s\nFormat                                   : AVI\nFormat/Info                              : Audio Video Interleave\nFile size                                : 700 MiB\nDuration                                 : 1h 56mn\nOverall bit rate                         : 837 Kbps\nWriting application                      : VirtualDubMod 1.5.4.1 (build 2178/release)\nWriting library                          : VirtualDubMod build 2178/release\n\nVideo\nID                                       : 0\nFormat                                   : MPEG-4 Visual\nFormat profile                           : Advanced Simple@L5\nFormat settings, BVOP                    : 2\nFormat settings, QPel                    : No\nFormat settings, GMC                     : No warppoints\nFormat settings, Matrix                  : Default (H.263)\nMuxing mode                              : Packed bitstream\nCodec ID                                 : XVID\nCodec ID/Hint                            : XviD\nDuration                                 : 1h 56mn\nBit rate                                 : 700 Kbps\nWidth                                    : 640 pixels\nHeight                                   : 352 pixels\nDisplay aspect ratio                     : 16:9\nFrame rate                               : 23.976 fps\nColor space                              : YUV\nChroma subsampling                       : 4:2:0\nBit depth                                : 8 bits\nScan type                                : Progressive\nCompression mode                         : Lossy\nBits/(Pixel*Frame)                       : 0.130\nStream size                              : 585 MiB (84%)\nWriting library                          : XviD 64\n\nAudio\nID                                       : 1\nFormat                                   : MPEG Audio\nFormat version                           : Version 1\nFormat profile                           : Layer 3\nMode                                     : Joint stereo\nCodec ID                                 : 55\nCodec ID/Hint                            : MP3\nDuration                                 : 1h 56mn\nBit rate mode                            : Constant\nBit rate                                 : 128 Kbps\nChannel(s)                               : 2 channels\nSampling rate                            : 48.0 KHz\nCompression mode                         : Lossy\nStream size                              : 107 MiB (15%)\nAlignment                                : Split accross interleaves\nInterleave, duration                     : 42 ms (1.00 video frame)\nInterleave, preload duration             : 500 ms\n\nCast: Gerard Butler, Elisabeth Shue Jonny Weston\n\nPlot:\nWhen young Jay Moriarty discovers that the mythic Mavericks surf break,\none of the biggest waves on Earth, exists just miles from his Santa Cruz \nhome, he enlists the help of local legend Frosty Hesson to train him to survive. \n\nIMDb: http://www.imdb.com/title/tt1629757/\n\nScreens: \n &lt;a href=&quot;\nhttp://www.shotpix.com/images/11344457525629793341.jpg&quot; rel=&quot;nofollow&quot; target=&quot;_NEW&quot;&gt;\nhttp://www.shotpix.com/images/11344457525629793341.jpg&lt;/a&gt;\n &lt;a href=&quot;\nhttp://www.shotpix.com/images/58962259164394922464.jpg&quot; rel=&quot;nofollow&quot; target=&quot;_NEW&quot;&gt;\nhttp://www.shotpix.com/images/58962259164394922464.jpg&lt;/a&gt;\n &lt;a href=&quot;\nhttp://www.shotpix.com/images/41171525879894288818.jpg&quot; rel=&quot;nofollow&quot; target=&quot;_NEW&quot;&gt;\nhttp://www.shotpix.com/images/41171525879894288818.jpg&lt;/a&gt;\n &lt;a href=&quot;\nhttp://www.shotpix.com/images/27625361610634435723.jpg&quot; rel=&quot;nofollow&quot; target=&quot;_NEW&quot;&gt;\nhttp://www.shotpix.com/images/27625361610634435723.jpg&lt;/a&gt;\n &lt;a href=&quot;\nhttp://www.shotpix.com/images/70976130161460779074.jpg&quot; rel=&quot;nofollow&quot; target=&quot;_NEW&quot;&gt;\nhttp://www.shotpix.com/images/70976130161460779074.jpg&lt;/a&gt;\n","torrent":{"xt":"urn:btih:3fc42fc094296d1aeb34eda1d363eb56ffa7237d","amp;dn":"Chasing.Mavericks.2012.WEBRiP.XviD-Acesn8s","amp;tr":["udp%3A%2F%2Ftracker.openbittorrent.com%3A80","udp%3A%2F%2Fopen.demonii.com%3A1337","udp%3A%2F%2Ftracker.coppersurfer.tk%3A6969","udp%3A%2F%2Fexodus.desync.com%3A6969"],"infoHash":"3fc42fc094296d1aeb34eda1d363eb56ffa7237d","infoHashBuffer":{"type":"Buffer","data":[63,196,47,192,148,41,109,26,235,52,237,161,211,99,235,86,255,167,35,125]},"announce":[],"urlList":[]}}